<?xml version="1.0" encoding="UTF-8"?>
<svg id="Layer_1" data-name="Layer 1" xmlns="http://www.w3.org/2000/svg" viewBox="0 0 617.52 92.59">
  <defs>
    <style>
      .cls-1 {
        fill: #fff;
      }

      .cls-2 {
        fill: #e31837;
      }

      .cls-3 {
        fill: #006491;
      }

      .cls-4 {
        fill: none;
      }
    </style>
  </defs>
  <path class="cls-3" d="m126.09,39.43h-21.4c-.71,0-1.28.57-1.28,1.29v48.17c0,.7.57,1.27,1.28,1.27h21.47c16.87,0,27.77-9.96,27.77-25.4s-10.93-25.33-27.84-25.33m0,37.35h-7.31v-23.97h7.38c7.62,0,12.17,4.46,12.17,11.94,0,5.97-4.2,12.02-12.24,12.02"/>
  <path class="cls-3" d="m248.78,52.52c-5.91,0-10.71,3.25-12.85,6.46-1.57-4.29-5.13-6.46-10.57-6.46-6.02,0-10.58,3.05-12.17,5.09v-2.9c0-.71-.57-1.28-1.28-1.28h-11.13c-.71,0-1.28.57-1.28,1.28v34.18c0,.7.57,1.27,1.28,1.27h11.13c.71,0,1.28-.57,1.28-1.27v-21.39h0c.81-.94,2.48-2.89,5.55-2.89,2.7,0,4.19,1.46,4.19,4.11v20.17c0,.7.58,1.27,1.28,1.27h11.13c.71,0,1.28-.57,1.28-1.27v-21.39c.8-.94,2.48-2.89,5.62-2.89,2.66,0,4.19,1.5,4.19,4.11v20.17c0,.7.57,1.27,1.28,1.27h11.13c.7,0,1.28-.57,1.28-1.27v-25.34c0-7.11-4.02-11.03-11.34-11.03"/>
  <path class="cls-3" d="m278.11,53.43h-11.13c-.71,0-1.28.57-1.28,1.28v34.18c0,.7.57,1.27,1.28,1.27h11.13c.71,0,1.28-.57,1.28-1.27v-34.18c0-.71-.58-1.28-1.28-1.28"/>
  <path class="cls-3" d="m272.88,35.4c-4.24,0-7.69,3.45-7.69,7.68s3.45,7.69,7.69,7.69,7.68-3.44,7.68-7.69-3.45-7.68-7.68-7.68"/>
  <path class="cls-3" d="m311.5,52.52c-7.1,0-10.96,3.19-12.62,5.09v-2.9c0-.71-.58-1.28-1.28-1.28h-11.13c-.7,0-1.28.57-1.28,1.28v34.18c0,.7.58,1.27,1.28,1.27h11.13c.7,0,1.28-.57,1.28-1.27v-21.39c.89-1.01,2.55-2.89,5.85-2.89,3.54,0,5.33,1.77,5.33,5.24v19.04c0,.7.57,1.27,1.28,1.27h11.13c.71,0,1.28-.57,1.28-1.27v-24.8c0-7.24-4.57-11.57-12.25-11.57"/>
  <path class="cls-3" d="m176,52.35c-10.71,0-19.39,8.68-19.39,19.38s8.68,19.4,19.39,19.4,19.39-8.67,19.39-19.4-8.68-19.38-19.39-19.38m0,25.74c-3.66,0-6.61-2.96-6.61-6.63s2.96-6.61,6.61-6.61,6.62,2.96,6.62,6.61-2.96,6.63-6.62,6.63"/>
  <path class="cls-3" d="m347.2,52.41c-10.7,0-19.39,8.68-19.39,19.39s8.68,19.39,19.39,19.39,19.4-8.68,19.4-19.39-8.69-19.39-19.4-19.39m0,25.73c-3.65,0-6.61-2.97-6.61-6.63s2.96-6.61,6.61-6.61,6.62,2.96,6.62,6.61-2.96,6.63-6.62,6.63"/>
  <path class="cls-3" d="m377.04,41.44h0c-.85-3.82-5.01-6.58-9.12-5.74-4.14.86-6.86,4.71-6.05,8.59.66,3.2,3.51,5.43,6.82,5.63-.21,1.31-1.37,2.48-2.33,3.02-.64.36-.26,1.06-.26,1.06l.85,1.26c.25.42.62.64,1.06.46,8.58-3.51,9.97-10.88,9.04-14.29Z"/>
  <path class="cls-3" d="m387.17,64.36c-.03-1.37,1.75-1.98,3.97-1.98,4.43,0,6.95,1.26,9.78,3.13.29.2.65.26,1,.18.34-.08.64-.3.81-.61l3.76-6.54c.34-.6.14-1.37-.46-1.72-3.09-1.84-7.61-4.22-15.47-4.22-11.33,0-17.39,5.33-16.38,13,1.78,13.47,22.73,8.86,22.41,13.46-.07,1.06-1.93,1.85-5.14,1.85-4.15,0-8.86-2.08-11.83-3.92-.29-.18-.66-.24-.99-.15-.34.09-.62.3-.79.61l-4.34,7.23c-.33.59-.16,1.32.4,1.7,4.17,2.82,10.9,4.71,16.74,4.71,11.34,0,17.88-4.87,17.88-12.87,0-14.77-21.26-10.19-21.36-13.84"/>
  <path class="cls-3" d="m495.44,88.84c0,.71.57,1.28,1.28,1.28h29.3c.75,0,1.28-.57,1.28-1.28v-9.27c0-.7-.57-1.27-1.28-1.27h-12.39s10.65-12.15,12.55-14.35c.52-.6,1.2-1.22,1.2-2.81v-6.36c0-.71-.57-1.28-1.28-1.28h-29.37c-.7,0-1.28.57-1.28,1.28v9.28c0,.7.57,1.27,1.28,1.27h12.59s-12.87,14.72-13.1,14.98c-.52.6-.77,1.44-.77,2.34v6.21Z"/>
  <path class="cls-3" d="m531.95,88.84c0,.71.57,1.28,1.28,1.28h29.3c.75,0,1.28-.57,1.28-1.28v-9.27c0-.7-.57-1.27-1.28-1.27h-12.26s10.51-12.16,12.42-14.35c.53-.6,1.2-1.22,1.2-2.81,0-.32,0-6.36,0-6.36,0-.71-.57-1.28-1.28-1.28h-29.37c-.71,0-1.28.57-1.28,1.28v9.28c0,.7.57,1.27,1.28,1.27h12.58s-12.87,14.72-13.09,14.98c-.52.6-.77,1.44-.77,2.34v6.21Z"/>
  <path class="cls-3" d="m587.05,78.79c-4.05,0-7.32-3.28-7.32-7.34s3.27-7.31,7.32-7.31,7.32,3.27,7.32,7.31-3.28,7.34-7.32,7.34m19.73-25.39h-11.13c-.7,0-1.28.57-1.28,1.28v2.16c-3-2.76-6.83-4.42-11.01-4.42-9.57,0-17.32,8.68-17.32,19.38s7.75,19.39,17.32,19.39c4.18,0,8.02-1.66,11.01-4.41v2.06c0,.71.57,1.28,1.28,1.28h11.13c.7,0,1.28-.57,1.28-1.28v-34.17c0-.71-.58-1.28-1.28-1.28"/>
  <path class="cls-3" d="m489.53,53.49h-11.11c-.7,0-1.28.57-1.28,1.27v34.08c0,.7.58,1.27,1.28,1.27h11.11c.7,0,1.27-.57,1.27-1.27v-34.08c0-.7-.57-1.27-1.27-1.27"/>
  <path class="cls-3" d="m483.98,35.52c-4.22,0-7.66,3.43-7.66,7.66s3.44,7.66,7.66,7.66,7.66-3.43,7.66-7.66-3.44-7.66-7.66-7.66"/>
  <path class="cls-3" d="m451.57,64.07h-2.8v-11.54h2.89c5.72,0,7.35,2.81,7.35,5.39,0,3.17-1.42,6.15-7.44,6.15m14.34-20.73c-4.69-3.25-9.51-4.01-17.09-4.01l-14.22.06c-.67,0-1.21.54-1.21,1.21v48.31c0,.67.54,1.21,1.21,1.21h12.96c.67,0,1.21-.54,1.21-1.21v-1.47s0-10.67,0-10.67c6.64,0,13.38-.07,18.37-4.39,3.48-3.01,6.09-7.86,6.09-14.42,0-5.09-2.6-11.33-7.33-14.61"/>
  <g>
    <path class="cls-4" d="m20.05,54.43c-1.87,0-3.73.71-5.15,2.13-1.42,1.43-2.13,3.29-2.13,5.16s.71,3.73,2.13,5.15c1.42,1.42,3.29,2.12,5.15,2.13,1.86,0,3.73-.71,5.15-2.13,1.42-1.42,2.13-3.29,2.13-5.15,0-1.86-.71-3.73-2.13-5.15-1.42-1.42-3.29-2.13-5.15-2.13Z"/>
    <path class="cls-4" d="m41.43,69.28c1.86,0,3.73-.72,5.15-2.13,1.43-1.42,2.14-3.29,2.14-5.15s-.71-3.73-2.14-5.15c-1.42-1.43-3.29-2.13-5.15-2.13s-3.73.71-5.15,2.13c-1.42,1.42-2.13,3.29-2.13,5.15s.71,3.72,2.13,5.15c1.42,1.42,3.29,2.13,5.15,2.13Z"/>
    <path class="cls-4" d="m64.01,3.42c-.61-.61-1.4-.91-2.2-.91s-1.59.3-2.2.91l-21.09,21.09-6.15,6.15,29.54,29.54,2.51-2.51,24.73-24.73c1.21-1.21,1.21-3.18,0-4.39L64.01,3.42Z"/>
    <path class="cls-1" d="m90.93,26.79L65.79,1.65c-1.06-1.06-2.47-1.65-3.97-1.65s-2.91.58-3.97,1.65l-21.09,21.09L1.64,57.84c-2.19,2.19-2.19,5.76,0,7.95l25.15,25.15c1.06,1.06,2.47,1.65,3.97,1.65s2.91-.59,3.97-1.65l31.47-31.47,24.73-24.73c2.19-2.19,2.19-5.76,0-7.95Z"/>
    <path class="cls-2" d="m89.16,28.58L64.01,3.43c-1.21-1.21-3.18-1.21-4.39,0l-27.19,27.19,29.54,29.54,27.19-27.19c1.21-1.21,1.21-3.18,0-4.39Zm-22.12,7.27c-1.42,1.42-3.29,2.13-5.15,2.13s-3.73-.71-5.15-2.13c-1.42-1.42-2.14-3.29-2.14-5.15,0-1.86.72-3.73,2.14-5.15,1.42-1.42,3.29-2.14,5.15-2.14,1.86,0,3.73.71,5.15,2.14,1.42,1.42,2.14,3.29,2.14,5.15s-.72,3.73-2.14,5.15Z"/>
    <path class="cls-3" d="m3.42,59.62c-1.21,1.21-1.21,3.18,0,4.39l25.15,25.15c.61.61,1.4.91,2.2.91s1.59-.3,2.2-.91l27.18-27.18-29.54-29.54L3.42,59.62Zm21.78,7.24c-1.43,1.41-3.29,2.13-5.15,2.13-1.87,0-3.73-.71-5.15-2.13-1.42-1.42-2.13-3.29-2.13-5.15s.71-3.73,2.13-5.16c1.42-1.42,3.29-2.13,5.15-2.13s3.73.71,5.15,2.13c1.42,1.43,2.13,3.29,2.13,5.15,0,1.86-.71,3.73-2.13,5.15Zm11.08-10.01c1.42-1.43,3.29-2.13,5.15-2.13s3.73.71,5.15,2.13c1.43,1.42,2.14,3.28,2.14,5.15s-.71,3.73-2.14,5.15c-1.42,1.41-3.29,2.13-5.15,2.13s-3.73-.71-5.15-2.13c-1.42-1.42-2.13-3.29-2.13-5.15s.71-3.73,2.13-5.15Z"/>
  </g>
  <g>
    <path class="cls-3" d="m45.58,89.91v-3.99h-1.44v-.92h3.91v.92h-1.43v3.99h-1.05Z"/>
    <path class="cls-3" d="m52.99,89.91v-3.54l-1.38,3.54h-.46l-1.38-3.54v3.54h-1.04v-4.91h1.46l1.19,3.07,1.19-3.07h1.47v4.91h-1.05Z"/>
  </g>
  <path class="cls-3" d="m613.71,61.02c-2.11,0-3.82-1.71-3.82-3.82s1.71-3.82,3.82-3.82,3.81,1.69,3.81,3.82-1.69,3.82-3.81,3.82Zm0-7.06c-1.8,0-3.24,1.42-3.24,3.24s1.44,3.24,3.24,3.24,3.24-1.46,3.24-3.24-1.44-3.24-3.24-3.24Zm1.04,5.44l-1.13-1.73h-.76v1.73h-.61v-4.38h1.78c.74,0,1.42.52,1.42,1.33,0,.97-.86,1.3-1.12,1.3l1.17,1.75h-.76Zm-.72-3.83h-1.17v1.55h1.17c.38,0,.79-.31.79-.76,0-.48-.41-.79-.79-.79Z"/>
</svg>